<svg class="diagram-root" style="background: #f5f6f6" xmlns="http://www.w3.org/2000/svg" xmlns:xlink="http://www.w3.org/1999/xlink"><style>.diagram-root { font-family: "Helvetica Neue", sans-serif; font-size: 12px; } .t { overflow: visible; } .t-bg { y: 40; fill: #fff;   } .th { fill: #005aa0;   } .tht { fill: #fff; font-size: 14px;  } .tf { fill: #323c46; overflow: visible; } .tf.pk { fill: #005aa0; font-weight: bold; } .tf.fk { font-weight: bold; } .ty { fill: #adb1b5; font-weight: normal; text-anchor: end; } .r { fill: transparent; stroke: #c3c3c3; stroke-width: 1; } .l { stroke: 1; } .i { fill: #c2c7ce; stroke: #c2c7ce; } .i.ix { fill: #afb3b6; stroke: #000; } .fa { fill: transparent; overflow: visible; } .fa .bg.hover { fill: #f7f7f7; } .c { cy: 12; r: 4; stroke: #d2d2dc; fill: #d2d2dc; } .hr { fill: transparent; stroke: #323c46; stroke-opacity: 0.035; stroke-width: 13; } .dc { stroke: #fa5a3c; fill: #fa5a3c; } .x { stroke: white; stroke-width: 1; } .hl .th { fill: #1b9bff; } .hl .tht {  } .fhl .bg { fill: #e7f4ff; } .fhls .bg {  } .r.hl { stroke: #1b9bff; } .dim { opacity: 0.25; }</style><g class="drawing-wrapper" transform="translate(-40, 176) scale(1,1)"><g class="rs"><path d="M 647 18 m -1, 0 a 1,1 0 1,0 2,0 a 1,1 0 1,0 -2,0 M 647 18 m -0.5, 0 a 0.5,0.5 0 1,0 1,0 a 0.5,0.5 0 1,0 -1,0  M647 18 L647 18 635 18 M641 24 L641 24 641 12 M635 18 Q 615.29 18, 595.58 86.5 T 556.16 155 M 544.16 155 m -1, 0 a 1,1 0 1,0 2,0 a 1,1 0 1,0 -2,0 M 544.16 155 m -0.5, 0 a 0.5,0.5 0 1,0 1,0 a 0.5,0.5 0 1,0 -1,0  M544.16 155 L544.16 155 556.16 155 M550.16 161 L550.16 161 550.16 149" id="h1749248143" class="r"></path><path d="M 647 43 m -1, 0 a 1,1 0 1,0 2,0 a 1,1 0 1,0 -2,0 M 647 43 m -0.5, 0 a 0.5,0.5 0 1,0 1,0 a 0.5,0.5 0 1,0 -1,0  M647 43 L647 43 635 43 M641 49 L641 49 641 37 M635 43 Q 614.55 43, 594.09 -23 T 553.17 -89 M 541.17 -89 m -1, 0 a 1,1 0 1,0 2,0 a 1,1 0 1,0 -2,0 M 541.17 -89 m -0.5, 0 a 0.5,0.5 0 1,0 1,0 a 0.5,0.5 0 1,0 -1,0  M541.17 -89 L541.17 -89 553.17 -89 M547.17 -83 L547.17 -83 547.17 -95" id="h1051940598" class="r"></path><path d="M 243.83 37 m -1, 0 a 1,1 0 1,0 2,0 a 1,1 0 1,0 -2,0 M 243.83 37 m -0.5, 0 a 0.5,0.5 0 1,0 1,0 a 0.5,0.5 0 1,0 -1,0  M243.83 37 L243.83 37 255.83 37 M249.83 43 L249.83 43 249.83 31 M255.83 37 Q 277.88 37, 299.92 -26 T 344 -89 M 356 -89 m -1, 0 a 1,1 0 1,0 2,0 a 1,1 0 1,0 -2,0 M 356 -89 m -0.5, 0 a 0.5,0.5 0 1,0 1,0 a 0.5,0.5 0 1,0 -1,0  M356 -89 L356 -89 344 -89 M350 -83 L350 -83 350 -95" id="h1397587031" class="r"></path><path d="M 243.83 62 m -1, 0 a 1,1 0 1,0 2,0 a 1,1 0 1,0 -2,0 M 243.83 62 m -0.5, 0 a 0.5,0.5 0 1,0 1,0 a 0.5,0.5 0 1,0 -1,0  M243.83 62 L243.83 62 255.83 62 M249.83 68 L249.83 68 249.83 56 M255.83 62 Q 279.13 62, 302.42 108.5 T 349 155 M 361 155 m -1, 0 a 1,1 0 1,0 2,0 a 1,1 0 1,0 -2,0 M 361 155 m -0.5, 0 a 0.5,0.5 0 1,0 1,0 a 0.5,0.5 0 1,0 -1,0  M361 155 L361 155 349 155 M355 161 L355 161 355 149" id="h2286254435" class="r"></path><path d="M 361 180 m -1, 0 a 1,1 0 1,0 2,0 a 1,1 0 1,0 -2,0 M 361 180 m -0.5, 0 a 0.5,0.5 0 1,0 1,0 a 0.5,0.5 0 1,0 -1,0  M361 180 L361 180 349 180 M355 186 L355 186 355 174 M349 180 Q 324.03 180, 299.07 210 T 249.14 240 M 237.14 240 m -1, 0 a 1,1 0 1,0 2,0 a 1,1 0 1,0 -2,0 M 237.14 240 m -0.5, 0 a 0.5,0.5 0 1,0 1,0 a 0.5,0.5 0 1,0 -1,0  M237.14 240 L237.14 240 249.14 240 M243.14 246 L243.14 246 243.14 234" id="h1537058300" class="r"></path><path d="M 696 235 m -1, 0 a 1,1 0 1,0 2,0 a 1,1 0 1,0 -2,0 M 696 235 m -0.5, 0 a 0.5,0.5 0 1,0 1,0 a 0.5,0.5 0 1,0 -1,0  M696 235 L696 235 684 235 M690 241 L690 241 690 229 M684 235 Q 652.04 235, 620.08 195 T 556.16 155 M 544.16 155 m -1, 0 a 1,1 0 1,0 2,0 a 1,1 0 1,0 -2,0 M 544.16 155 m -0.5, 0 a 0.5,0.5 0 1,0 1,0 a 0.5,0.5 0 1,0 -1,0  M544.16 155 L544.16 155 556.16 155 M550.16 161 L550.16 161 550.16 149" id="h3177548053" class="r"></path></g><g class="hrs"></g><g class="ts"><svg width="173.14" height="100" x="64" y="183" id="h311790747" class="t"><rect height="40" width="173.14" class="th"></rect><text x="13" y="25" class="tht">titles</text><rect height="60" width="173.14" class="t-bg"></rect><text x="13" y="61" class="tf pk">title_id<tspan x="160.14" class="ty">VARCHAR(5)</tspan></text><path d="M7,14A2,2 0 0,1 5,12A2,2 0 0,1 7,10A2,2 0 0,1 9,12A2,2 0 0,1 7,14M12.65,10C11.83,7.67 9.61,6 7, 6A6, 6 0 0, 0 1, 12A6, 6 0 0, 0 7, 18C9.61, 18 11.83, 16.33 12.65, 14H17V18H21V14H23V10H12.65Z" class="i pk" transform="translate(67.68882812499999, 48) scale(0.65)"></path><text x="13" y="86" class="tf">title<tspan x="160.14" class="ty">VARCHAR(25)</tspan></text></svg><svg width="181.83" height="100" x="62" y="-20" id="h1676682957" class="t"><rect height="40" width="181.83" class="th"></rect><text x="13" y="25" class="tht">dept_manager</text><rect height="60" width="181.83" class="t-bg"></rect><text x="13" y="61" class="tf pk">dept_no<tspan x="168.83" class="ty">VARCHAR(5)</tspan></text><path d="M7,14A2,2 0 0,1 5,12A2,2 0 0,1 7,10A2,2 0 0,1 9,12A2,2 0 0,1 7,14M12.65,10C11.83,7.67 9.61,6 7, 6A6, 6 0 0, 0 1, 12A6, 6 0 0, 0 7, 18C9.61, 18 11.83, 16.33 12.65, 14H17V18H21V14H23V10H12.65Z" class="i pk" transform="translate(76.37882812500001, 48) scale(0.65)"></path><text x="13" y="86" class="tf pk">emp_no<tspan x="168.83" class="ty">INT</tspan></text><path d="M7,14A2,2 0 0,1 5,12A2,2 0 0,1 7,10A2,2 0 0,1 9,12A2,2 0 0,1 7,14M12.65,10C11.83,7.67 9.61,6 7, 6A6, 6 0 0, 0 1, 12A6, 6 0 0, 0 7, 18C9.61, 18 11.83, 16.33 12.65, 14H17V18H21V14H23V10H12.65Z" class="i pk" transform="translate(129.499921875, 73) scale(0.65)"></path></svg><svg width="183.16" height="225" x="361" y="98" id="h1639608377" class="t"><rect height="40" width="183.16" class="th"></rect><text x="13" y="25" class="tht">employees</text><rect height="185" width="183.16" class="t-bg"></rect><text x="13" y="61" class="tf pk">emp_no<tspan x="170.16" class="ty">INT</tspan></text><path d="M7,14A2,2 0 0,1 5,12A2,2 0 0,1 7,10A2,2 0 0,1 9,12A2,2 0 0,1 7,14M12.65,10C11.83,7.67 9.61,6 7, 6A6, 6 0 0, 0 1, 12A6, 6 0 0, 0 7, 18C9.61, 18 11.83, 16.33 12.65, 14H17V18H21V14H23V10H12.65Z" class="i pk" transform="translate(130.829921875, 48) scale(0.65)"></path><text x="13" y="86" class="tf fk">emp_title_id<tspan x="170.16" class="ty">VARCHAR(5)</tspan></text><text x="13" y="111" class="tf">birth_date<tspan x="170.16" class="ty">TIMESTAMP</tspan></text><text x="13" y="136" class="tf">first_name<tspan x="170.16" class="ty">VARCHAR(15)</tspan></text><text x="13" y="161" class="tf">last_name<tspan x="170.16" class="ty">VARCHAR(50)</tspan></text><text x="13" y="186" class="tf">sex<tspan x="170.16" class="ty">VARCHAR(1)</tspan></text><text x="13" y="211" class="tf">hire_date<tspan x="170.16" class="ty">TIMESTAMP</tspan></text></svg><svg width="128.7" height="100" x="696" y="178" id="h2472833127" class="t"><rect height="40" width="128.7" class="th"></rect><text x="13" y="25" class="tht">salaries</text><rect height="60" width="128.7" class="t-bg"></rect><text x="13" y="61" class="tf pk">emp_no<tspan x="115.69999999999999" class="ty">INT</tspan></text><path d="M7,14A2,2 0 0,1 5,12A2,2 0 0,1 7,10A2,2 0 0,1 9,12A2,2 0 0,1 7,14M12.65,10C11.83,7.67 9.61,6 7, 6A6, 6 0 0, 0 1, 12A6, 6 0 0, 0 7, 18C9.61, 18 11.83, 16.33 12.65, 14H17V18H21V14H23V10H12.65Z" class="i pk" transform="translate(76.36992187499999, 48) scale(0.65)"></path><text x="13" y="86" class="tf">salary<tspan x="115.69999999999999" class="ty">INT</tspan></text></svg><svg width="181.83" height="100" x="647" y="-39" id="h1288854339" class="t"><rect height="40" width="181.83" class="th"></rect><text x="13" y="25" class="tht">dept_employees</text><rect height="60" width="181.83" class="t-bg"></rect><text x="13" y="61" class="tf pk">emp_no<tspan x="168.83" class="ty">INT</tspan></text><path d="M7,14A2,2 0 0,1 5,12A2,2 0 0,1 7,10A2,2 0 0,1 9,12A2,2 0 0,1 7,14M12.65,10C11.83,7.67 9.61,6 7, 6A6, 6 0 0, 0 1, 12A6, 6 0 0, 0 7, 18C9.61, 18 11.83, 16.33 12.65, 14H17V18H21V14H23V10H12.65Z" class="i pk" transform="translate(129.499921875, 48) scale(0.65)"></path><text x="13" y="86" class="tf pk">dept_no<tspan x="168.83" class="ty">VARCHAR(5)</tspan></text><path d="M7,14A2,2 0 0,1 5,12A2,2 0 0,1 7,10A2,2 0 0,1 9,12A2,2 0 0,1 7,14M12.65,10C11.83,7.67 9.61,6 7, 6A6, 6 0 0, 0 1, 12A6, 6 0 0, 0 7, 18C9.61, 18 11.83, 16.33 12.65, 14H17V18H21V14H23V10H12.65Z" class="i pk" transform="translate(76.37882812500001, 73) scale(0.65)"></path></svg><svg width="185.17" height="100" x="356" y="-146" id="h475896179" class="t"><rect height="40" width="185.17" class="th"></rect><text x="13" y="25" class="tht">departments</text><rect height="60" width="185.17" class="t-bg"></rect><text x="13" y="61" class="tf pk">dept_no<tspan x="172.17" class="ty">VARCHAR(5)</tspan></text><path d="M7,14A2,2 0 0,1 5,12A2,2 0 0,1 7,10A2,2 0 0,1 9,12A2,2 0 0,1 7,14M12.65,10C11.83,7.67 9.61,6 7, 6A6, 6 0 0, 0 1, 12A6, 6 0 0, 0 7, 18C9.61, 18 11.83, 16.33 12.65, 14H17V18H21V14H23V10H12.65Z" class="i pk" transform="translate(79.71882812499999, 48) scale(0.65)"></path><text x="13" y="86" class="tf">dept_name<tspan x="172.17" class="ty">VARCHAR(35)</tspan></text></svg></g></g><text class="qdbd-link" x="10" y="20">www.quickdatabasediagrams.com</text></svg>